<svg width="295" height="80" viewBox="0 0 295 80" fill="none" xmlns="http://www.w3.org/2000/svg">
<path d="M299.7 -57.1L325.1 -131.1H350.3L376 -57.1H355.8L352.1 -70.5H323.5L319.7 -57.1H299.7ZM335.4 -109.2L327.9 -84.7H348L340.5 -109.2C340.1 -110.4 339.7 -111.6 339.3 -112.8C339 -114.1 338.7 -115.3 338.5 -116.6C338.3 -117.1 338.2 -117.5 338.2 -117.9C338.1 -118.4 338 -118.8 338 -119.2C337.9 -118.8 337.8 -118.4 337.7 -117.9C337.6 -117.5 337.5 -117.1 337.5 -116.6C337.4 -116.4 337.4 -116.3 337.4 -116.1C337.4 -116 337.4 -115.9 337.3 -115.8C337.1 -114.7 336.8 -113.5 336.5 -112.4C336 -111.4 335.7 -110.3 335.4 -109.2ZM217.7 -57.1V-131.1H237.2L265.1 -93.1C265.8 -92 266.5 -90.8 267.1 -89.6C267.8 -88.4 268.5 -87.2 269.1 -86L270.5 -83C271 -82 271.4 -81 271.9 -80.1C271.8 -80.9 271.7 -81.7 271.6 -82.5C271.5 -83.3 271.4 -84.1 271.4 -84.9C271.2 -86.5 271.1 -88.1 271.1 -89.7C271 -91.4 271 -93 271 -94.7V-131H290.4V-57H271L242.9 -95.2C242.1 -96.1 241.4 -97.2 240.7 -98.5C240 -99.8 239.3 -101.2 238.7 -102.6C238.3 -103.6 237.8 -104.5 237.3 -105.5C236.9 -106.4 236.6 -107.4 236.1 -108.3C236.5 -105.9 236.8 -103.5 237 -101C237.2 -98.5 237.3 -96 237.3 -93.6V-57.1H217.7ZM129.7 -112C133.3 -118.6 138.2 -123.6 144.6 -127.1C151 -130.6 157.6 -132.3 164.5 -132.3C165.4 -132.3 166.4 -132.3 167.3 -132.2C168.3 -132.1 169.3 -132 170.2 -132C173.1 -131.6 175.9 -130.9 178.7 -129.9C181.6 -128.9 184.3 -127.6 186.8 -126C192.3 -122.4 196.6 -117.7 199.6 -111.7C202.6 -105.8 204.1 -99.7 204.1 -93.2C204.1 -92.4 204.1 -91.6 204 -90.8C204 -90 203.9 -89.3 203.8 -88.5C203.6 -86.8 203.3 -85.2 202.9 -83.6C202.5 -82 202 -80.5 201.4 -79C198.1 -71.5 193.1 -65.6 186.2 -61.5C179.3 -57.4 172.1 -55.3 164.5 -55.3C164 -55.3 163.4 -55.3 162.9 -55.4H161.4C158.7 -55.6 156.1 -56.1 153.5 -56.8C150.9 -57.5 148.4 -58.5 146.1 -59.7C139.6 -63.1 134.5 -67.9 130.8 -74.2C127.1 -80.5 125.2 -87.1 125.2 -93.9C125.2 -94.9 125.2 -95.9 125.3 -96.9C125.4 -97.9 125.5 -99 125.8 -100C126.2 -102 126.7 -104.1 127.4 -106C127.8 -108.2 128.7 -110.1 129.7 -112ZM182.5 -85.4C182.7 -86.2 182.9 -87 183.1 -87.8C183.3 -88.7 183.5 -89.5 183.6 -90.4C183.7 -90.9 183.7 -91.5 183.7 -92C183.8 -92.5 183.8 -93 183.8 -93.5C183.8 -94 183.8 -94.4 183.7 -94.9V-96.3C183.3 -99.6 182.3 -102.8 180.7 -105.9C179.1 -109 176.8 -111.4 174 -113.1C173.2 -113.5 172.5 -113.8 171.7 -114.1C170.9 -114.4 170.2 -114.7 169.4 -114.9C168.6 -115.1 167.9 -115.2 167.1 -115.2C166.3 -115.4 165.6 -115.4 164.8 -115.4C160.9 -115.4 157.2 -114.2 153.9 -111.7C150.6 -109.2 148.2 -105.9 146.9 -101.8L146.7 -101.3V-100.8C146.5 -100.1 146.3 -99.3 146.1 -98.6C145.9 -97.9 145.8 -97.2 145.6 -96.4L145.4 -94.8V-92.4C145.4 -92.2 145.4 -91.9 145.5 -91.6C145.7 -87.5 147 -83.6 149.2 -79.9C151.5 -76.3 154.7 -73.9 158.7 -72.7L160.1 -72.2C160.6 -72.1 161.1 -72 161.6 -72L163 -71.8H164.4C168.5 -71.8 172.2 -73 175.4 -75.4C178.7 -78 181.1 -81.3 182.5 -85.4ZM100.4 -64C96.8 -61.5 92.8001 -59.8 88.6001 -58.9C84.4001 -58 80 -57.4 75.7 -57.2C74.5 -57.1 73.2 -57.1 72 -57.1H48.2V-131.1H73.3C74.5 -131.1 75.7 -131.1 76.9 -131C81.1 -130.8 85.2 -130.2 89.2 -129.3C93.3 -128.4 97.1 -126.6 100.5 -124.2C104.8 -121.2 108.2 -117.2 110.6 -112.2C113 -107.2 114.4 -102.1 114.7 -96.9C114.8 -96.4 114.8 -96 114.8 -95.5V-92.6C114.6 -87.1 113.3 -81.8 110.9 -76.7C108.5 -71.6 104.9 -67.3 100.4 -64ZM68 -73.7C68.2 -73.7 68.5 -73.7 68.7 -73.6H69.5C69.8 -73.6 70.1 -73.6 70.3 -73.5H73.4C74.3 -73.6 75.1 -73.7 75.8 -73.7C77.8 -73.9 79.8 -74.2 81.7 -74.7C83.6 -75.2 85.4 -76.1 86.9 -77.1C89.4 -78.9 91.2 -81.3 92.4 -84.3C93.6 -87.4 94.3 -90.6 94.3 -93.9V-94.8C94.3 -95.1 94.3 -95.4 94.2 -95.7C94 -98.6 93.3001 -101.5 92.1001 -104.2C90.9001 -107 89.2 -109.2 87 -110.8C85.4 -112.1 83.5 -113 81.5 -113.5C79.5 -114 77.5 -114.2 75.5 -114.3H68V-73.7ZM-11.9 -57.1V-131.1H33.5V-115H7.90005V-102H31.9V-86.2H7.90005V-73.7H33.4V-57.1H-11.9ZM-71.3 -80.9C-71.2 -80.8 -71.2 -80.7 -71.2 -80.7C-71.1 -80.7 -71 -80.7 -71 -80.6C-68.9 -78.3 -66.4999 -76.1 -63.9 -74.1C-61.3 -72.2 -58.1999 -71.1 -54.7999 -71C-54.6999 -71 -54.6 -71 -54.6 -70.9H-54.2999C-54.1999 -70.9 -54.1 -70.9 -54.1 -70.8H-52.7999C-52.3999 -70.9 -52.0999 -71 -51.7999 -71C-50.5999 -71.2 -49.3999 -71.7 -48.2999 -72.4C-47.0999 -73.1 -46.1999 -73.9 -45.5999 -75L-45.4 -75.5L-45.2 -76C-45 -76.5 -44.9 -77 -44.9 -77.5C-44.8 -78 -44.7999 -78.4 -44.7999 -78.8C-44.7999 -80.9 -45.6999 -82.6 -47.5999 -84C-49.2999 -85.4 -51.3 -86.6 -53.4 -87.4C-54.2 -87.7 -54.9999 -87.9 -55.7999 -88.1C-56.4999 -88.3 -57.3 -88.5 -58 -88.7H-58.2C-58.3 -88.8 -58.4 -88.8 -58.4 -88.8C-62.1999 -89.7 -65.8 -91.2 -69.1 -93.2C-72.4 -95.3 -74.7 -98.3 -76 -102.1C-76.2 -102.9 -76.5 -103.7 -76.7 -104.5C-76.9 -105.4 -77 -106.3 -77 -107.2C-77 -107.3 -77 -107.6 -77 -107.8V-110.6C-76.9 -111.2 -76.8 -111.8 -76.7 -112.5C-76.5 -114.1 -76.1 -115.6 -75.5 -117.1C-75 -118.6 -74.3 -120 -73.4 -121.3C-70.9 -125.4 -67.6999 -128.3 -63.9 -130.1C-59.9999 -131.9 -55.8 -132.8 -51.6 -132.8C-50.6 -132.8 -49.5999 -132.7 -48.5999 -132.6C-47.4999 -132.5 -46.3999 -132.4 -45.2999 -132.3C-42.4999 -131.8 -39.6999 -131 -37.0999 -130C-34.2999 -128.9 -31.8 -127.6 -29.4 -126.2L-35.7999 -111.9C-37.8999 -113.4 -40.1 -114.8 -42.4 -116C-44.7 -117.2 -47.1999 -117.7 -49.9 -117.7H-50.7999C-52.5999 -117.5 -54.1999 -116.7 -55.7999 -115.3C-57.2999 -114 -58.1 -112.6 -58.1 -111V-110.3C-58 -110.1 -57.8999 -109.8 -57.7999 -109.6C-57.5999 -109.1 -57.4 -108.6 -57 -108.1C-56.6 -107.6 -56.2 -107.2 -55.7 -106.8C-54.8 -106.1 -53.6 -105.4 -52 -104.8C-50.4 -104.3 -48.7 -103.7 -46.9 -103.2C-45.4 -102.8 -43.9999 -102.4 -42.5999 -102C-41.1999 -101.7 -39.9999 -101.4 -39.0999 -101.1C-34.7999 -99.6 -31.4999 -97 -29.2999 -93.3C-27.0999 -89.7 -26 -85.9 -25.9 -81.9V-81.3C-25.9 -80.8 -25.9 -80.4 -26 -79.9V-78.6C-26.5 -74.6 -27.8 -70.7 -29.9 -67.1C-32 -63.5 -34.8 -60.7 -38.4 -58.7C-39.7 -58.1 -41.1 -57.5 -42.5 -57.1C-43.9 -56.7 -45.3 -56.4 -46.7 -56.1C-47.8 -55.9 -49 -55.7 -50.2 -55.6C-51.3 -55.4 -52.4 -55.4 -53.6 -55.4H-55C-59.6 -55.6 -64.2 -56.6 -68.7 -58.4C-73.2 -60.3 -77.2 -62.9 -80.7 -66.1L-71.3 -80.9ZM270.3 66.2C270.3 65.9 270.4 65.6 270.5 65.3C270.6 65 270.8 64.7 271 64.5C271.2 64.3 271.5 64.1 271.8 63.9C272.1 63.8 272.5 63.7 272.9 63.7C273.4 63.7 273.8 63.8 274.2 64C274.6 64.2 275 64.4 275.3 64.7C275.5 65 275.7 65.3 275.9 65.7C276 66.1 276.1 66.5 276.1 67C276.1 67.9 275.9 68.6 275.6 69.4C275.3 70.1 274.9 70.8 274.3 71.3C274 71.6 273.8 71.8 273.5 72C273.2 72.2 272.9 72.4 272.6 72.5C272.3 72.6 272.1 72.8 271.9 72.9C271.8 73 271.7 73 271.5 73.1L270.1 71.1C270.3 71 270.6 70.9 270.9 70.7C271.2 70.6 271.5 70.4 271.8 70.2C272.1 70 272.3 69.7 272.5 69.4C272.7 69.1 272.8 68.8 272.8 68.4C272.2 68.4 271.6 68.2 271.1 67.8C270.5 67.5 270.3 67 270.3 66.2ZM278.1 66.2C278.1 65.9 278.2 65.6 278.3 65.3C278.4 65 278.6 64.7 278.8 64.5C279 64.3 279.3 64.1 279.6 63.9C279.9 63.8 280.3 63.7 280.7 63.7C281.2 63.7 281.6 63.8 282 64C282.4 64.2 282.8 64.4 283.1 64.7C283.3 65 283.5 65.3 283.7 65.7C283.8 66.1 283.9 66.5 283.9 67C283.9 67.8 283.8 68.6 283.4 69.4C283.1 70.1 282.7 70.8 282.1 71.3C281.8 71.6 281.6 71.8 281.3 72C281 72.2 280.7 72.4 280.4 72.5C280.1 72.6 279.9 72.8 279.7 72.9C279.6 73 279.5 73 279.3 73.1L278 71.1C278.2 71 278.5 70.9 278.8 70.7C279.1 70.6 279.4 70.4 279.7 70.2C280 70 280.2 69.7 280.4 69.4C280.6 69.1 280.7 68.8 280.7 68.4C280.1 68.4 279.5 68.2 279 67.8C278.3 67.5 278.1 67 278.1 66.2ZM13.5 7.5C13.5 7.8 13.4 8.09999 13.3 8.39999C13.2 8.69999 13 9.00001 12.8 9.20001C12.3 9.70001 11.6 10 10.9 10C10.5 10 10 9.90001 9.60004 9.70001C9.20004 9.50001 8.80005 9.3 8.50005 9C8.20005 8.7 8.00005 8.3 7.90005 8C7.80005 7.6 7.70004 7.20001 7.70004 6.70001C7.70004 5.80001 7.90004 5.09999 8.20004 4.29999C8.50004 3.59999 8.90005 2.89999 9.50005 2.39999C9.80005 2.09999 10 1.90001 10.3 1.70001C10.6 1.50001 10.9 1.30001 11.2 1.20001C11.5 1.10001 11.7 0.899988 11.9 0.799988C12.1 0.699988 12.2 0.700006 12.3 0.600006L13.6 2.60001C13.3 2.70001 13 2.8 12.8 3C12.5 3.1 12.2 3.3 11.9 3.5C11.6 3.7 11.4 3.99999 11.2 4.29999C11 4.59999 10.9 4.89999 10.9 5.29999C11.6 5.29999 12.1 5.49999 12.6 5.89999C13.3 6.29999 13.5 6.8 13.5 7.5ZM5.70004 7.5C5.70004 8.1 5.50005 8.70001 5.00005 9.20001C4.80005 9.40001 4.50004 9.59999 4.20004 9.79999C3.90004 9.89999 3.50004 10 3.10004 10C2.70004 10 2.20005 9.90001 1.80005 9.70001C1.40005 9.50001 1.00004 9.3 0.700043 9C0.400043 8.7 0.200044 8.3 0.100044 8C4.4249e-05 7.6 -0.0999527 7.20001 -0.0999527 6.70001C-0.0999527 5.80001 0.100047 5.09999 0.400047 4.29999C0.700047 3.59999 1.10004 2.89999 1.70004 2.39999C1.90004 2.19999 2.20005 1.90001 2.50005 1.70001C2.80005 1.50001 3.10005 1.30001 3.40005 1.20001C3.70005 1.10001 3.90004 0.899988 4.10004 0.799988C4.30004 0.699988 4.40005 0.700006 4.50005 0.600006L5.80005 2.60001C5.60005 2.70001 5.30005 2.8 5.00005 3C4.70005 3.1 4.40004 3.3 4.10004 3.5C3.80004 3.7 3.60005 3.99999 3.40005 4.29999C3.20005 4.59999 3.10004 4.89999 3.10004 5.29999C3.80004 5.29999 4.30005 5.49999 4.80005 5.89999C5.40005 6.29999 5.70004 6.8 5.70004 7.5ZM251 64.4H254.8L266.6 43.8H262.8L251 64.4ZM250.9 65.9C249.7 65.9 248.7 66.9 248.7 68.1C248.7 69.3 249.6 70.3 250.9 70.3C252.1 70.3 253.1 69.4 253.1 68.1C253.1 66.8 252.1 65.9 250.9 65.9ZM224.5 60.4L225.6 58.5C230 52.4 232.9 54.1 231.6 56.4L229.8 59.5C228.7 61.4 225.3 62.8 224.5 60.4ZM249.6 63.3C249.4 62.7 248.7 62.1 248.2 62L247.9 62.3C246.6 63.9 245 65.2 243.4 66.4C244.6 62.8 244.3 57.3 246.7 52.4L243.9 50.9C242.3 53 238.9 58 235.5 62L235.2 62.3C232.5 65.5 229.8 68 228.2 68C227.4 68 226.6 67.2 226.6 65.5V63.9C229.3 64.2 232.1 62.5 233.8 59.4L234.8 57.7C238.3 51.7 232.6 49.7 228.7 53.2L234.1 43.9H230.3L219.5 62.6C219.3 62.4 219.1 62.3 218.8 62.1L218.5 62.4C215.8 65.6 212.3 68.1 209.6 68.1C207.3 68.1 205.9 66.6 207.6 63.6L211.5 56.8C213.7 53.1 217.5 53.7 215.3 57.6L214.8 58.5H217.9L218.4 57.6C220.4 54.1 218.5 51.5 215.4 51.5C212.3 51.5 209.9 53.1 208.3 55.9L204.6 62.3C204.5 62.3 204.4 62.2 204.4 62.2L204.1 62.5C201.4 65.7 198.7 68.2 197.1 68.2C196.3 68.2 195.8 67.6 196.7 66.1L204.8 52H201L194.3 63.7C191.4 66.3 189.2 67.8 188.5 67.4C187.6 67 188.5 65.6 189 64.8L196.4 51.9H192.6L185.3 64.6C184.5 65.3 182.9 66 182.1 66.5C183.3 62.9 183 57.4 185.4 52.5L182.6 51C181 53.1 172.3 64.7 168.9 68.7C169.2 69.2 169.8 69.6 170.3 70C172.4 67.5 179.6 58.3 181 56.5C179.5 60.4 180.3 67.5 176.7 67.5C175.4 67.5 174.9 66.1 174.9 66.1L172.5 67.3C172.5 67.3 173.2 70.3 176.6 70.3C177 70.3 177.3 70.3 177.7 70.2H177.8C179.7 69.9 182.4 69.1 184.2 67.8C184.2 69.3 185.1 70.3 186.7 70.3C188.8 70.3 191.1 68.4 192.9 66.7C192.5 68.7 193.7 70.3 196.1 70.3C198.4 70.3 201.1 68.4 203.5 65.9C203.5 68.4 205.5 70.3 208.6 70.3C211.7 70.3 214.7 68.6 217.3 66.3L215.2 70H219L223.3 62.5V65.5C223.3 68.7 223.9 70.4 227 70.4C230.1 70.4 233.7 67.1 236.8 63.4C238.9 60.9 240.8 58.3 242.2 56.5C240.7 60.4 241.5 67.5 237.9 67.5C236.6 67.5 236.1 66.1 236.1 66.1L233.7 67.3C233.7 67.3 234.4 70.3 237.8 70.3C238.2 70.3 238.5 70.3 238.9 70.2H239C243 69.7 246.8 66.6 249.6 63.3ZM135 62.2H134.8C133.6 62.2 132.6 63.2 132.6 64.5C132.6 65 132.7 65.4 133 65.8V65.9C131.2 68.9 126.9 68.4 129.1 64.4L132 59.4L133.8 56.3C136.5 51.8 140.1 53.6 137.8 57.5L135 62.2ZM109.6 76.4C108.8 77.8 107.5 77.6 107.5 76.6C107.5 75.6 108.4 74.5 111.3 73.4L109.6 76.4ZM80.8 62.6C78.5 66.2 76.3 67.9 74.7 67.9C73.9 67.9 73.4 67.3 74.3 65.8L79.6001 56.6C81.6001 53.1 85.7 54 83.8 57.4L80.8 62.6ZM68.8 47.9C69.9 46 71.2 45.1 72.2 45.1C73.6 45.1 74.3 46 74.3 47.4C74.3 50.9 69.9001 58.2 64.1001 57.3H63.3L68.8 47.9ZM161.6 62L161.3 62.3C158.6 65.5 155.9 68 154.3 68C153.5 68 153 67.4 153.9 65.9L159.3 56.3C160.9 53.4 159.4 51.4 157.3 51.4C155.7 51.4 154 52.3 152.1 54.2L153.5 51.7H149.7L143.6 62.2C143.4 62.1 143.3 62 143.1 61.9L142.8 62.2C141.1 64.1 139 65 137.1 65L140.7 58.9C143 54.9 140.9 51.2 137.3 51.2C134.4 51.2 132.1 52.4 130 56.1L128.1 59.3L126.5 62.1C126.4 62 126.3 62 126.2 61.9L125.9 62.2C122.8 65.8 120.1 68.1 117.1 69.4L127.5 51.7H123.7L117 63.3C114.1 66 111.8 67.5 111.1 67.2C110.2 66.8 111.1 65.4 111.6 64.6L119 51.7H115.2L109.2 62.1C109.1 62 109 62 108.9 61.9L108.6 62.2C105.9 65.4 103.2 67.9 101.6 67.9C100.8 67.9 100.3 67.3 101.2 65.8L106.6 56.2C108.2 53.3 106.7 51.3 104.6 51.3C103 51.3 101.3 52.2 99.4 54.1L100.8 51.6H97L91 62C90.9 61.9 90.8001 61.9 90.6001 61.8L90.3 62.1C87.6 65.3 84.9 67.8 83.3 67.8C82.5 67.8 82 67.2 82.9 65.7L89 55H86.9C87 53.4 85.4 51.2 82.9 51.2C80.9 51.2 78 52.8 76.4 55.6L72.5 62.3C72.2 62.1 71.9 61.9 71.7 61.8L71.4 62.1C68.7 65.3 66.6 67.8 62.8 67.8C60.2 67.8 58.7 65.2 60.9 61.4L62 59.5C62.7 59.6 63.4001 59.7 64.1001 59.7C68.1001 59.7 72.7 57.6 75.7 52.4C76.8 50.5 77.2 48.8 77.2 47.3C77.2 43.9 75 41.7 72.2 41.7C70.1 41.7 67.7 43.2 66 46.1L60.1001 56.2C57.9001 55 56.7 52.9 56.7 50.8C56.7 49.1 57.5001 47.3 59.1001 46L57.9 43.8C55.2 45.7 54 48.3 54 50.8C54 53.8 55.7 56.7 58.8 58.3L57.7 60.3C55 64.9 56.6 70 61.9 70C66.1 70 68.0001 68.1 70.6001 65.6C69.8001 68 71.0001 70 73.6001 70C75.1001 70 77 69 78.8 67.5C79 69 80.1001 70 82.1001 70C83.9001 70 85.9 68.9 87.8 67.2L86.4 69.6H90.2L96 59.5C101.8 52.3 104.4 53.2 102.7 56L97.8 64.5C96.2 67.3 97.3 69.9 100.4 69.9C102.4 69.9 104.7 68.5 106.8 66.5C106.3 68.6 107.3 69.9 109.2 69.9C111 69.9 113.1 68.4 114.8 66.9L112.7 70.5C107.6 72 104.4 74.1 104.4 77C104.4 80.6 110 81.4 112.7 76.7L115.6 71.7C118.8 70.7 121.9 68.7 125.1 65.5C124.6 70.8 131.6 72 135.8 66.6H136.6C138 66.6 139.8 66.1 141.5 65.1L139 69.5H142.8L148.6 59.4C154.4 52.2 157 53.1 155.3 55.9L150.4 64.4C148.8 67.2 149.9 69.8 153 69.8C156.1 69.8 159.7 66.5 162.8 62.8C162.7 62.8 162.1 62.2 161.6 62ZM280.2 26.4C277.9 30.1 275.6 31.9 274 31.9C273.2 31.9 272.7 31.3 273.6 29.8L278.9 20.6C280.9 17.1 285 18 283.1 21.4L280.2 26.4ZM244 26.6C241.7 30.2 239.5 31.9 237.9 31.9C237.1 31.9 236.6 31.3 237.5 29.8L242.8 20.6C244.8 17.1 248.9 18 247 21.4L244 26.6ZM204.1 40.4C203.3 41.8 202 41.6 202 40.6C202 39.6 202.9 38.5 205.8 37.4L204.1 40.4ZM212.1 11.9C213.2 9.99999 214.5 9.10001 215.5 9.10001C221.5 9.10001 217 23.5 207.4 21.3H206.6L212.1 11.9ZM289.8 26L289.5 26.3C286.8 29.5 284.1 32 282.5 32C281.7 32 281.2 31.4 282.1 29.9L294.9 7.79999H291.1L285.5 17.4C284.8 16.3 283.6 15.4 282 15.4C280 15.4 277.1 17 275.5 19.8L271.8 26.2C271.7 26.2 271.6 26.1 271.6 26.1L271.3 26.4C268.6 29.6 266.3 32.1 264.6 32.1C263.8 32.1 263.3 31.5 264.2 30L269.7 20.4C271.3 17.5 269.8 15.5 267.7 15.5C266.1 15.5 264.4 16.4 262.5 18.3L263.9 15.8H260.1L254.1 26.2C254 26.1 253.9 26.1 253.7 26L253.4 26.3C250.7 29.5 248 32 246.4 32C245.6 32 245.1 31.4 246 29.9L252.1 19.2H250C250.1 17.6 248.5 15.4 246 15.4C244 15.4 241.1 17 239.5 19.8L235.8 26.1L235.6 26.3C232.9 29.5 229.8 32 228.2 32C227.4 32 226.9 31.4 227.8 29.9L231.6 23.3C232.9 21 232.3 19.7 231.1 18.2L229 15.7C228.5 15 228.5 14.2 229.2 13.5L227.2 11.4C225.1 13.3 224.9 15.5 226.2 17.2L226.5 17.6C224.8 20 222.6 23.2 220.1 26.1C220.2 26.2 220.3 26.3 220.4 26.4C217.3 30 214.6 32.3 211.7 33.6L216.5 25.4H212.7L212.3 26.1C210.3 29.6 208 32.1 205.1 32.1C202.5 32.1 202.1 29.5 204.3 25.7L205.4 23.8C206.1 23.9 206.8 24 207.5 24C220.9 24 227.4 6 215.6 6C213.5 6 211.1 7.49999 209.4 10.4L203.5 20.5C201.3 19.3 200.1 17.2 200.1 15.1C200.1 13.4 200.9 11.6 202.5 10.3L201.3 8.10001C198.6 10 197.4 12.6 197.4 15.1C197.4 18.1 199.1 21 202.2 22.6L201.1 24.6C198.4 29.2 198.9 34.3 204.3 34.3C205.9 34.3 207.2 33.8 208.4 33.1L207.4 34.8C202.3 36.4 199.1 38.4 199.1 41.3C199.1 44.9 204.7 45.7 207.4 41L210.3 36C214.2 34.8 218.1 32.1 222.2 27.3C222.1 27.2 222.1 27.1 222 26.9C223.7 24.9 225.1 23 228 19.2L228.5 19.8C229 20.4 229.2 21.2 228.7 21.9L224.7 28.8C223.1 31.6 224.2 34.2 227.3 34.2C229.2 34.2 231.6 33 233.7 31.2C233.7 32.9 234.8 34.2 237 34.2C238.5 34.2 240.4 33.2 242.2 31.7C242.4 33.2 243.5 34.2 245.5 34.2C247.3 34.2 249.3 33.1 251.2 31.4L249.8 33.8H253.6L259.4 23.7C265.2 16.5 267.8 17.4 266.1 20.2L261.2 28.7C259.6 31.5 260.7 34.1 263.8 34.1C265.8 34.1 267.6 32.7 269.8 30.8C269.6 32.7 270.8 34.1 273.1 34.1C274.6 34.1 276.5 33.1 278.3 31.6C278.5 33.1 279.6 34.1 281.6 34.1C284.7 34.1 288.3 30.8 291.4 27.1C290.9 26.8 290.3 26.2 289.8 26ZM177.5 20.7C179.7 17 183.5 17.6 181.3 21.5L180.8 22.4C179 25.5 176.5 25.4 175.1 24.9L177.5 20.7ZM174.5 34.3C178.8 34.3 183 31 186.2 27.3C185.9 26.8 185.3 26.2 184.8 26L184.5 26.3C181.8 29.5 178.3 32 175.6 32C173.3 32 171.9 30.5 173.6 27.5L174 26.8C176.4 27.8 181 27.3 183.8 22.4L184.3 21.5C186.3 18 184.4 15.4 181.3 15.4C178.3 15.4 175.8 17 174.2 19.8L170.5 26.1C170.5 26.1 170.4 26.1 170.4 26L170.1 26.3C167.4 29.5 164.7 32 163.1 32C162.3 32 161.8 31.4 162.7 29.9L168.1 20.3C169.7 17.4 168.2 15.4 166.1 15.4C164.5 15.4 162.7 16.3 160.8 18.3L166.8 7.79999H163L152.3 26.3C152.2 26.2 152 26.1 151.9 26L151.6 26.3C148.9 29.5 146.2 32 144.6 32C143.8 32 143.3 31.4 144.2 29.9L152.3 15.8H155.4L156.5 14H153.4L157 7.79999H153.2L149.6 14H146.2L145.1 15.8H148.5L140.9 29C139.3 31.8 140.4 34.4 143.5 34.4C145.4 34.4 147.4 33.2 149.4 31.4L147.9 34H151.7L157.4 24C163.2 16.7 165.8 17.6 164.2 20.4L159.3 28.9C157.7 31.7 158.8 34.3 161.9 34.3C164.2 34.3 166.7 32.5 169.2 30.1C169.4 32.5 171.4 34.3 174.5 34.3ZM47 20.7C49.2 17 53 17.6 50.8 21.5L50.3 22.4C48.5 25.5 46 25.4 44.6 24.9L47 20.7ZM70.1001 29.9L75.4 20.7C77.4 17.2 81.5001 18.1 79.6001 21.5L76.7 26.7C74.4 30.3 72.2001 32 70.6001 32C69.7001 31.9 69.2001 31.4 70.1001 29.9ZM124.1 20.7C126.3 17 130.1 17.6 127.9 21.5L127.4 22.4C125.6 25.5 123.2 25.4 121.7 24.9L124.1 20.7ZM66.3 30.2C65.7 32.4 66.9 34.3 69.4 34.3C70.9 34.3 72.8001 33.3 74.6001 31.8C74.8001 33.3 75.9 34.3 77.9 34.3C79.9 34.3 82.1 32.9 84.3 31C83.9 33 84.8 34.3 86.7 34.3C88.8 34.3 91.1 32.4 92.9 30.7C92.5 32.7 93.7001 34.3 96.1001 34.3C99.2001 34.3 102.8 31 105.9 27.3C105.9 27.3 105.8 27.2 105.8 27.1C107.9 24.7 109.7 22.1 111 20.3C109.5 24.2 110.3 31.3 106.7 31.3C105.4 31.3 104.9 29.9 104.9 29.9L102.5 31.1C102.5 31.1 103.2 34.2 106.6 34.2C107 34.2 107.3 34.2 107.7 34.1H107.8C110.6 33.7 113.3 32 115.7 29.9C115.8 32.4 117.7 34.2 120.8 34.2C125.1 34.2 129.3 30.9 132.5 27.2C132.2 26.7 131.6 26.1 131.1 25.9L130.8 26.2C128.1 29.4 124.6 31.9 121.9 31.9C119.6 31.9 118.2 30.4 119.9 27.4L120.3 26.7C122.7 27.7 127.3 27.2 130.1 22.3L130.6 21.4C132.6 17.9 130.7 15.3 127.6 15.3C124.5 15.3 122.1 16.9 120.5 19.7L116.8 26H116.7L116.4 26.3C115.1 27.9 113.5 29.2 111.9 30.4C113.1 26.8 112.8 21.3 115.2 16.4L112.4 14.9C110.8 17 107.4 22 104 26L104.1 26.1L104 26.3C101.3 29.5 98.6 32 97 32C96.2 32 95.7001 31.4 96.6001 29.9L104.7 15.8H100.9L94.2 27.5C91.3 30.1 89.1 31.6 88.4 31.2C87.5 30.8 88.4 29.4 88.9 28.6L96.3 15.7H92.5L86.5 26.1C86.4 26 86.3 26 86.2 25.9L85.9 26.2C83.2 29.4 80.5 31.9 78.9 31.9C78.1 31.9 77.6 31.3 78.5 29.8L84.6001 19.1H82.5C82.6 17.5 81 15.3 78.5 15.3C76.5 15.3 73.6 16.9 72 19.7L68.2 26.3C68 26.2 67.8001 26 67.6001 25.9L67.3 26.2C64.6 29.4 61.4 31.9 58.8 31.9C56.5 31.9 55.1 30.4 56.8 27.4L60.7 20.6C62.9 16.9 66.7 17.5 64.5 21.4L64 22.3H67.1001L67.6001 21.4C69.6001 17.9 67.7001 15.3 64.6001 15.3C61.5001 15.3 59.5 16.9 57.9 19.7L54.1001 26.1C54.0001 26 53.9 26 53.8 25.9L53.5 26.2C50.8 29.4 47.6 31.9 44.9 31.9C42.6 31.9 41.2 30.4 42.9 27.4L43.3 26.7C45.7 27.7 50.3001 27.2 53.1001 22.3L53.6001 21.4C55.6001 17.9 53.7001 15.3 50.6001 15.3C47.5001 15.3 45.1 16.9 43.5 19.7L39.5 26.5C37.1 30.5 39.2 34.2 43.6 34.2C46.9 34.2 49.6 32.2 52.4 29.6C52.3 32.2 54.3 34.2 57.5 34.2C60.9 34.3 63.6 32.5 66.3 30.2ZM29.4 16.2L32.5 11C35.3 6.2 38.8 9.00001 36.9 12.6C35.4 15.3 33.3 16.2 29.4 16.2ZM25.3 33.5C23 33.5 21.3 33 19.9 32.2C20.6 31.4 21.2 30.5 21.8 29.5L28.2 18.5L29.2 18.6C38 20.4 34.5 33.5 25.3 33.5ZM34.7 18C42.3 15.4 42.9 5.89999 35.4 5.89999C33.3 5.89999 30.9 7.39999 29.2 10.3L19 27.9C18.6 28.7 18.1 29.4 17.5 30C14.9 26.4 15.6 21 19.3 18.7L17.8 16.8C9.90005 21.8 12.2 36.4 25.4 36.4C36.7 36.4 41.9 22.8 34.7 18Z" fill="white"/>
</svg>
